<svg width="40" height="70" viewBox="0 0 150 240" fill="none" xmlns="http://www.w3.org/2000/svg">
<rect width="150" height="240" fill="none"/>
<path d="M149.206 128.651C147.757 229.711 149.865 230.161 143.229 236.008C137.615 240.956 134.536 239.907 74.7684 239.907C15.0009 239.907 9.9297 240.82 4.13407 236.458C-1.66157 232.096 0.330674 231.66 0.330671 119.954C0.330671 94.5398 0.330671 54.2232 0.330676 25.6414C10.2919 17.719 11.0163 17.1429 17.3553 12.1013C22.1998 8.2483 26.0488 5.18718 32.5688 0.00158342C47.9081 0.00158135 63.8431 0.00158485 74.7684 0.00158485C133.63 0.00158606 143.338 -0.298225 147.576 7.34875C151.814 14.9957 149.206 21.1433 149.206 128.651Z" fill="#235AE8" fill-opacity="0.7"/>
<path d="M23.2401 152.223C19.6209 143.245 59.0627 149.081 73.3566 152.373C87.6505 155.665 76.553 139.15 123.473 152.522" stroke="black"/>
<path d="M25.2401 179.223C21.6209 170.245 61.0627 176.081 75.3566 179.373C89.6505 182.665 78.553 166.15 125.473 179.522" stroke="black"/>
<path d="M23.2401 126.223C19.6209 117.245 59.0627 123.081 73.3566 126.373C87.6505 129.665 76.553 113.15 123.473 126.522" stroke="black"/>
<path d="M23.2401 102.223C19.6209 93.245 59.0627 99.0807 73.3566 102.373C87.6505 105.665 76.553 89.1499 123.473 102.522" stroke="black"/>
<path d="M32 12.9249C32 18.185 31.3608 21.9422 29.6629 23.4451C27.965 24.948 26.0674 26 17.9775 26C3.95506 26 15.6404 26 0 26C10.9663 16.9827 19.2359 9.76879 32 0C32 7.96533 32 -0.770522 32 12.9249Z" fill="#416FE2"/>
<path d="M23.2401 46.223C19.6209 37.245 59.0627 43.0807 73.3566 46.3727C87.6505 49.6647 76.553 33.1499 123.473 46.5223" stroke="black"/>
<path d="M23.2401 75.223C19.6209 66.245 59.0627 72.0807 73.3566 75.3727C87.6505 78.6647 76.553 62.1499 123.473 75.5223" stroke="black"/>
<path d="M23.2401 208.223C19.6209 199.245 59.0627 205.081 73.3566 208.373C87.6505 211.665 76.553 195.15 123.473 208.522" stroke="black"/>
</svg>
