<svg width="100" height="100" viewBox="0 0 954 924" fill="none" xmlns="http://www.w3.org/2000/svg">
<rect width="954" height="924" fill="none"/>
<rect width="954" height="924" fill="none"/>
<path d="M318 602.5C318 618.516 318 636.868 298 645C252.5 663.5 235 628.016 235 612C235 595.984 249.215 583 267.993 583C286.771 583 318 586.484 318 602.5Z" fill="black"/>
<path d="M330.242 574.5C330.242 599.629 328.991 629.5 305.242 629.5C281.494 629.5 210.242 606 235.242 577C244.742 557.5 263.494 527 287.242 527C310.991 527 341.242 543 330.242 574.5Z" fill="#2042da"/>
<ellipse cx="649" cy="781.5" rx="44" ry="38.5" fill="black"/>
<ellipse cx="243.5" cy="698.5" rx="13.5" ry="12.5" fill="black"/>
<path d="M848.647 416.971C762.147 566.471 764.148 576.5 718.148 576.5C701.647 682.5 755.647 808.499 685.148 808.499C642.768 814.371 463.768 754.898 427.648 730.5C357.671 696.082 297.03 687.619 253.147 681.2C250.24 680.775 254.647 692 240.647 691C225.147 691 235.066 678.475 230.647 677.711C211.308 674.367 196.802 670.393 188.149 662.499C177.149 662.499 102.149 520.499 102.149 501.999C102.149 501.999 98.1487 475.999 131.649 471.499C135.529 470.978 159.149 474.5 210.149 482.5C189.649 449.5 177.147 414 198.149 400.499C198.58 400.569 213.647 396.466 251.147 403C293.646 411.5 311.649 417 321.149 418.999C321.149 421 321.149 422 321.149 425.5C205.649 400.047 205.496 408.499 202.564 412.5C197.026 431.001 222.531 484.411 226.147 485C250.098 488.904 276.345 492.762 311.649 498.499C304.149 506.499 311.649 498.499 304.149 506.499C291.668 504.596 263.132 500.007 231.147 495.346C228.687 494.988 238.147 519.5 255.147 551.5C251.147 559 252.147 557 248.147 562.5C234.647 545.5 224.623 518 212.647 495.346C177.647 489 138.416 482.5 137.147 482.5C112.647 488 120.013 503.966 121.649 506.499C131.649 535 165.902 595.085 191.149 643.499C203.149 654.499 250.149 662.499 287.648 669C287.648 572.499 320.96 553.655 324.648 539.471C324.648 526.5 315.148 539.471 315.148 526.5C374.748 411.679 420.648 334 433.148 300C446.97 278.157 469.552 253.741 477.648 246C496.148 280.5 567.148 277 496.148 347C486.648 347 462.148 330 449.148 325C431.148 367 378.841 485.695 366.148 526.5C375.148 539.471 393.811 553.692 397.648 559C397.648 584.971 397.648 569.5 397.648 584.971C433.648 584.971 457.648 591.971 560.148 591.971C572.648 533.971 567 552.5 575 522C599 522 626.396 532.5 703 532.5C839 456.5 804.147 341.971 827.147 355.471C841.801 364.072 857.326 401.971 848.647 416.971Z" fill="#262424"/>
<ellipse cx="526.5" cy="606" rx="14.5" ry="16" fill="#D08765"/>
<path d="M548.251 634.047C548.251 640.047 552.748 645.047 514.748 638.547C507.159 636.384 508.891 634.677 495 631.547C463.52 631.547 440 612.825 440 594.047C440 583.451 453.142 584.017 470.251 586.523C483.461 588.457 506.535 610.547 520.251 610.547C551.731 610.547 548.251 582.047 548.251 634.047Z" fill="black"/>
<path d="M448.001 587.57C446.815 587.339 444.804 586.772 443.801 587.774C443.104 588.471 442.58 589.999 441.946 590.506C440.724 591.483 441.396 595.309 441.396 596.744C441.396 597.939 441.545 598.924 441.946 600.047C442.4 601.319 443.662 602.263 443.944 603.533C444.392 605.549 446.72 607.214 447.247 609.058C447.719 610.713 450.617 612.34 451.589 613.991C452.581 615.679 454.585 616.809 455.707 618.211C456.342 619.005 458.734 620.537 459.743 620.597C461.541 620.702 462.944 622.064 464.881 622.064" stroke="white" stroke-width="4" stroke-linecap="round"/>
<path d="M523.227 613.624C523.785 613.538 529.254 612.523 527.998 612.523C524.242 612.523 528.046 612.103 529.669 611.708C532.5 611.019 535.309 610.185 538.089 609.567C539.372 609.282 542.342 607.727 543.328 606.938C544.703 605.838 546.346 603.609 546.346 606.469C546.346 607.648 543.282 608.707 542.126 609.221C540.42 609.979 538.672 611.319 536.805 611.423C536.243 611.454 534.525 612.146 534.154 612.442C533.621 612.868 532.171 612.72 531.504 612.911C529.13 613.589 527.333 613.991 524.695 613.991" stroke="white" stroke-width="4" stroke-linecap="round"/>
<path d="M625.276 370.5C494.958 468.041 527.776 541.5 543.776 566C536.276 585 550.276 605 526.276 599.5C467.276 615 456.276 475.168 456.276 428.5C435.69 347.5 479.776 361 512.276 341C563.915 341 656.563 347.082 625.276 370.5Z" fill="black"/>
<path d="M547 683.859C547 696.639 544.15 713 527.73 713C511.311 713 498 702.64 498 689.86C498 677.08 504.704 676.313 521.124 676.313C529.933 642.609 543.697 669.271 547 683.859Z" fill="#D08765"/>
<path d="M562.06 708C562.06 729.263 559.06 739.5 527.56 739.5C514.692 739.5 464.491 744.318 453.56 742C424.612 735.861 399.06 725.435 399.06 710C399.06 704.734 397.403 696.65 411.56 690.5C442.56 685 461.793 678.17 484.06 672C495.56 687 500.56 701.5 521.56 701.5C551.56 692 546.06 691.5 546.06 679C557.06 682.5 555.56 668.5 562.06 708Z" fill="black"/>
<path d="M588.342 312.285C555.342 308.785 557.342 321.785 508.342 268.785C508.342 268.785 508.342 268.785 501.842 273.785C492.035 273.785 481.114 253.903 472.342 252.285C459.342 267.785 447.73 289.285 451.842 262.785C456.342 233.785 447.842 237.785 516.342 241.785C551.842 259.285 555.842 252.285 596.842 252.285C612.416 264.277 603.876 298.971 588.342 312.285Z" fill="#DF9569"/>
<path d="M730 202.5C730 233.704 743.75 236 701.5 236C659.25 236 585 202.204 585 171C585 139.796 611.25 146 653.5 146C695.75 146 730 171.296 730 202.5Z" fill="#EDB18D"/>
<path d="M809.206 227C834.706 262 828.206 407.5 795.206 449C722.706 576 645.206 532 565.706 528.5C536.296 523.538 493.706 520 478.706 510C489.206 510 516.206 528.5 516.206 608.5C529.968 640.18 544.206 642 539.206 674.5C520.369 692.861 519.206 689.999 496.206 689.999C482.206 673 479.199 671.531 473.706 659.5C445.206 575.5 378.706 506.5 400.206 449C404.706 422.5 458.206 411.5 530.206 401.5C546.206 411.5 567.731 440.223 569.206 440C612.206 433.5 656.706 388 667.706 377C640.706 370 597.706 349 579.706 349C589.706 343 594.143 319.818 593.706 299.5C563.706 303.5 565.958 278.716 567.706 252.5C598.706 229.5 561.706 205.5 654.706 191C670.746 168.218 692.799 158 699.206 158C721.574 158 790.206 191 809.206 227Z" fill="#090808"/>
<path d="M669.5 379.018C645 403.018 605.5 439.518 570.5 439.518C559 424.518 543.5 410.518 524.5 391.018C493.143 345.14 483.5 322.518 472 314.518C419.5 277.996 432 311.018 450 319.518C436.664 320.935 426 316.891 426 300.518C434 260.018 439 258.518 497 289.518C526.5 311.518 544.5 342.018 579 357.018C581.421 354.328 581.5 350.018 586 348.018C645.75 373.018 597.5 353.518 669.5 379.018Z" fill="#DF9569"/>
<path d="M666.097 157.25C661.097 167.25 627.597 244.25 604.597 235.25C592.597 235.25 550.097 211.433 550.097 167.25C520.597 107.25 550.097 92.25 584.597 83.25C597.097 75.25 628.097 66.25 646.097 92.25C657.915 109.321 674.999 139.445 666.097 157.25Z" fill="#EDB18D"/>
<path d="M625.5 218.745C615.5 228.745 615 190.072 583.5 198.072C563.5 203.152 589.5 229.5 569 215.5C569 204.454 558.5 193.745 582.5 189.504C622.5 183.745 631 204.245 625.5 218.745Z" fill="#170C03"/>
<path d="M653.335 190.446C647 212 633.335 246.446 610.335 246.446C587.335 246.446 563.5 214.5 561 202C567.964 204.5 582.862 229.439 595.335 226.446C627 224.5 633.835 200.937 633.835 195.946C633.835 182.967 630.335 144.446 631.671 137.446C642.716 137.446 653.335 179.5 653.335 190.446Z" fill="#170C03"/>
<path d="M629 179.5C651 232.5 654 141.39 654 146C654 158 654 228.5 627.5 186.5C623.5 186.5 635.5 144 643 117.5C637 151 637 146.5 629 179.5Z" fill="white"/>
<path d="M634.993 142.082C627.493 155.582 642.25 120.082 599.581 105.582C518.081 105.582 549.524 161.924 542.081 147.082C529 121 506 89.5 577 66C587.708 62.4558 615 53.5001 638 75.5C645.956 86.9373 677.993 139.582 666.993 139.582C653.993 146.582 665.993 112.082 648.493 112.082C641.493 119.082 637.246 128.089 634.993 142.082Z" fill="#170C03"/>
<path d="M647.194 196.277C636.194 214.777 643.694 217.277 615.694 237.277C593.129 241.73 579.194 227.277 565.194 209.777C540.394 178.777 554.694 183.277 574.194 170.777C593.106 170.777 609.694 161.277 631.694 163.277C631.694 181.277 634.418 189.889 647.194 196.277Z" fill="#CAA0A2"/>
<path d="M658.5 148C658.5 155 655.839 159.02 651 155.5C645.5 151.5 644.5 151 641 143.5C640 125.5 640 119 648.5 112.5C662 112.5 658.5 120.386 658.5 148Z" fill="#D7A485"/>
<path d="M402.319 702.357C401.831 704.919 401.88 707.408 401.88 710C401.88 711.888 401.88 706.223 401.88 704.335C401.88 703.529 401.88 702.723 401.88 701.917C401.88 700.13 401.579 701.964 401.343 702.259C400.458 703.365 400.122 705.295 400.122 706.752C400.122 710.659 400.412 712.839 402.319 716.177C404.363 719.754 407.043 722.353 410.915 724.113C419.43 727.984 428.149 732.323 437.506 734.662C441.147 735.572 444.822 736.239 448.47 737.177C452.295 738.161 456.55 738.433 460.239 739.716C462.503 740.504 465.759 740.558 468.151 740.596C471.39 740.646 474.59 741.035 477.82 741.035C483.599 741.035 489.267 741.914 495.06 741.914C503.868 741.914 512.573 739.716 521.431 739.716C530.069 739.716 540.125 740.399 548.242 736.982C550.984 735.827 555.448 733.992 556.178 730.706C556.449 729.489 558.558 727.904 559.231 726.726C560.22 724.995 560.989 723.911 560.989 721.916C560.989 720.969 561.048 720.003 560.989 719.059C560.914 717.864 559.311 720.767 558.449 721.598C555.431 724.508 552.23 726.296 548.389 727.849C537.275 732.342 526.292 734.442 514.301 734.442C499.73 734.442 485.389 733.514 470.886 732.708C464.343 732.345 457.751 731.888 451.302 730.731C445.08 729.614 438.769 729.459 432.671 727.629C428.311 726.321 424.422 724.353 420.242 722.575C417.821 721.545 414.831 719.936 412.868 718.18C411.58 717.027 409 716.227 408.033 715.005C407.152 713.892 404.491 712.704 404.102 711.343C403.606 709.606 402.242 707.687 401.465 705.873C400.802 704.325 401.001 704.234 401.001 706.068C401.001 708.164 400.923 710.274 401.001 712.368C401.114 715.426 404.82 716.961 406.178 719.059C406.493 719.547 409.702 722.67 410.133 722.282C411.361 721.177 408.53 716.95 408.033 715.982C407.37 714.69 406.866 713.827 405.836 712.905C405.424 712.537 402.301 711.419 402.954 712.563C405.065 716.258 407.721 719.186 410.695 722.16C412.519 723.984 415.932 726.602 413.698 722.135C412.723 720.185 411.143 718.653 409.621 717.13C407.686 715.195 408.417 717.133 409.181 718.595C410.532 721.179 413.15 723.006 415.041 725.212C416.839 727.309 415.017 725.039 413.967 724.309C413.375 723.897 410.061 720.877 410.255 722.624C410.45 724.373 411.575 725.319 412.868 726.335C414.053 727.266 415.149 728.188 416.384 729.07C417.472 729.847 419 729.686 419.901 730.486C421.228 731.666 424.343 732.012 426.054 732.782C428.741 733.991 431.487 735.437 434.405 735.761C436.339 735.976 439.33 737.027 440.998 737.861C442.343 738.533 445.849 739.277 447.347 739.277C449.388 739.277 451.234 740.596 453.305 740.596C458.953 740.596 464.439 741.914 470.104 741.914C475.045 741.914 479.985 741.914 484.926 741.914C488.216 741.914 492.063 742.454 495.255 741.694C498.444 740.935 502.009 741.795 505.144 740.815C508.122 739.885 512.182 740.596 515.278 740.596C521.489 740.596 527.83 740.039 534.031 739.619C536.802 739.431 539.568 739.186 542.333 738.935C543.155 738.86 544.728 739.176 545.263 738.398C545.717 737.738 546.692 737.138 547.266 736.542C548.95 734.793 550.531 733.219 552.54 731.805C553.65 731.024 554.954 730.615 556.056 729.852C557.104 729.126 557.448 727.598 558.547 726.97C558.952 726.738 555.82 726.968 555.031 727.41C551.006 729.664 546.09 731.085 541.845 732.904C540.051 733.673 538.109 734.946 536.18 735.297C535.57 735.408 533.609 736.151 533.616 736.151C536.264 736.151 540.152 734.581 542.724 733.783C545.787 732.832 544.769 733.464 542.773 734.662C541.695 735.308 541.15 735.761 539.891 735.761C539.355 735.761 536.875 735.761 538.67 735.761C543.099 735.761 545.984 734.962 549.317 731.805C551.939 729.321 555.649 727.719 557.472 724.528C558.598 722.558 554.57 726.11 553.956 726.531C551.593 728.15 549.678 729.49 547.021 730.682C544.47 731.827 542.359 733.263 539.647 733.905C537.723 734.361 535.715 734.792 533.836 735.419C530.525 736.523 526.153 735.761 522.652 735.761C520.963 735.761 519.722 736.64 518.013 736.64C515.343 736.64 523.352 736.64 526.022 736.64C528.944 736.64 531.866 736.64 534.788 736.64C537.315 736.64 536.385 736.2 534.226 736.2C528.264 736.2 522.346 737.079 516.352 737.079C505.918 737.079 495.483 737.079 485.048 737.079C472.592 737.079 459.364 738.613 447.371 734.882C439.726 732.503 430.017 732.889 423.173 728.533C420.576 726.881 417.179 726.528 414.602 724.724C413.733 724.115 410.508 723.014 412.966 723.014C414.615 723.014 416.409 723.492 418.045 723.796C419.953 724.151 421.83 724.262 423.759 724.675C425.454 725.038 422.803 724.721 422.44 724.675C420.336 724.405 418.636 723.491 416.726 722.673C416.168 722.434 412.157 720.497 412.966 721.305C415.837 724.177 420.288 725.645 424.027 726.921C428.181 728.34 433.533 729.016 437.872 729.559C440.972 729.946 443.8 731.186 446.834 732C449.958 732.839 452.979 732.982 456.137 733.563C459.732 734.224 462.534 734.898 466.051 736.005C473.63 738.391 482.082 736.513 489.883 737.177C491.652 737.328 493.38 737.519 495.157 737.519C497.179 737.519 492.452 736.738 492.081 736.64C487.157 735.342 482.316 734.38 477.283 733.661C474.436 733.254 471.367 733.563 468.493 733.563C464.852 733.563 461.136 733.091 457.505 732.782C455.383 732.601 453.217 732.894 451.107 732.66C448.04 732.319 444.988 731.181 441.901 730.731C440.725 730.559 431.869 729.643 431.646 728.972C431.103 727.344 434.789 730.376 436.432 730.877C439.229 731.73 442.204 732.038 445.051 732.708C450.034 733.881 454.965 734.882 460.093 734.882C463.017 734.882 465.774 734.984 468.664 735.517C469.379 735.648 474.703 735.761 473.083 735.761C470.577 735.761 468.235 734.882 465.782 734.882C462.974 734.882 471.398 734.882 474.207 734.882C477.749 734.882 470.442 734.882 469.665 734.882C468.355 734.882 463.003 734.068 462.193 734.979C461.625 735.618 470.45 737.421 471.032 737.519C475.694 738.303 480.486 737.886 485.195 737.958C488.798 738.013 492.227 738.83 495.792 739.179C498.716 739.466 496.166 739.287 494.913 739.277C484.892 739.196 475.324 736.411 465.465 735.077C463.879 734.862 462.296 735.02 460.777 734.54C460.222 734.365 460.191 735.484 460.63 735.663C463.658 736.897 467.459 736.69 470.641 737.299C471.421 737.448 478.78 738.398 475.501 738.398C471.854 738.398 468.242 737.958 464.61 737.958C461.589 737.958 464.963 737.958 466.051 737.958C470.893 737.958 475.671 738.854 480.506 739.179C484.25 739.431 488.036 739.277 491.788 739.277C495.981 739.277 501.437 738.585 505.511 737.421C506.845 737.04 508.127 737.079 509.515 737.079C509.656 737.079 507.281 737.225 506.731 737.323C505.458 737.552 504.265 738.215 502.996 738.373C501.645 738.542 500.205 738.398 498.844 738.398C497.094 738.398 502.344 738.398 504.094 738.398C512.646 738.398 521.211 738.019 529.782 737.543C533.258 737.35 536.569 736.2 539.989 736.2C542.986 736.2 539.672 736.185 538.475 736.2C534.507 736.251 530.628 737.045 526.608 737.079C521.081 737.127 515.592 737.56 510.052 737.519C505.148 737.482 500.311 736.715 495.401 736.64C491.282 736.576 487.185 736.2 483.046 736.2C480.074 736.2 477.443 736.157 474.548 735.419C472.007 734.77 464.185 734.003 466.808 734.003C470.503 734.003 474.198 734.003 477.894 734.003C483.529 734.003 489.116 733.778 494.742 733.539C497.515 733.421 500.205 732.482 502.971 732.269C509.692 731.752 516.669 731.805 523.409 731.805C526.073 731.805 528.492 731.365 531.101 731.365C534.779 731.365 538.675 731.559 542.187 730.389C544.62 729.578 547.064 728.563 549.561 727.849C551.12 727.404 552.872 726.918 554.152 725.871C557.013 723.53 551.394 725.678 550.245 726.091C536.696 730.955 521.626 729.47 507.708 732.147C500.681 733.498 493.313 732.233 486.269 733.221C483.371 733.628 480.412 733.713 477.479 733.905C469.114 734.452 461.263 732.757 453.06 731.903C450.038 731.588 446.699 731.365 443.659 731.365C441.29 731.365 439.176 730.047 436.798 730.047C434.94 730.047 433.354 728.982 431.548 728.704C429.845 728.442 427.916 727.772 426.298 727.19C423.478 726.175 420.813 724.255 418.362 722.551C415.815 720.779 412.692 719.147 410.67 716.837C407.375 713.07 403.895 710.334 402.417 705.531C401.801 703.527 401.88 701.374 401.88 699.28C401.88 697.359 403.736 697.325 404.517 695.764" stroke="white" stroke-width="3" stroke-linecap="round"/>
<path d="M403.638 697.082C402.622 702.417 404.549 704.885 406.275 709.633C407.227 712.252 408.8 715.869 411.305 717.301C411.589 717.463 411.914 719.141 411.965 719.498C412.095 720.408 412.778 720.902 413.308 721.696" stroke="white" stroke-width="3" stroke-linecap="round"/>
<path d="M405.836 709.829C407.132 711.44 409.068 714.075 410.866 715.103C411.985 715.743 412.588 717.527 413.747 718.277C414.832 718.979 415.602 720.476 416.384 721.476C417.617 723.051 419.229 724.273 420.804 725.481C425.206 728.856 429.809 730.007 434.844 732.245" stroke="white" stroke-width="3" stroke-linecap="round"/>
<path d="M453.744 708.95C455.306 708.34 458.288 706.242 459.897 707.094C461.449 707.915 462.342 709.389 464.293 709.389C466.051 709.389 467.809 709.389 469.567 709.389C471.585 709.389 473.673 707.859 475.72 707.631C477.496 707.434 479.515 705.974 481.434 705.873C483.118 705.784 484.753 705.172 486.269 704.994C489.612 704.601 493.457 702.795 496.598 705.238C502.802 710.063 510.808 710.665 518.379 711.611C520.726 711.905 523 712.586 525.363 712.881C527.145 713.104 529.087 712.905 530.881 712.905C532.897 712.905 533.683 713.125 531.76 714.663C530.942 715.318 530.207 716.547 529.44 717.398C528.088 718.901 520.693 718.737 518.794 717.838C517.223 717.094 514.783 716.516 513.08 716.422C511.538 716.336 510.071 715.543 508.685 715.543C504.607 715.543 501.22 713.251 497.697 711.489C494.318 709.8 491.55 709.389 487.807 709.389C486.667 709.389 483.537 709.186 482.777 710.073C481.942 711.047 479.429 712.155 478.138 712.441C475.148 713.106 471.671 714.663 468.688 714.663C466.667 714.663 461.475 717.18 459.897 714.419C458.664 712.26 454.737 711.375 453.744 709.389" stroke="white" stroke-width="3" stroke-linecap="round"/>
<path d="M456.381 709.389C457.009 709.846 460.106 712.466 460.947 712.466C462.014 712.466 459.396 710.973 458.823 710.073C458.11 708.952 458.271 707.812 459.604 709.145C460.801 710.341 461.798 711.654 459.458 711.587C458.517 711.56 457.571 710.823 456.918 710.171C455.992 709.244 459.12 711.591 460.239 712.27C461.873 713.262 465.283 712.466 467.15 712.466C468.179 712.466 461.991 712.562 461.656 713.15C460.256 715.599 467.215 713.045 468.249 712.93C471.376 712.582 466.241 711.67 465.392 711.587C462.542 711.309 460.655 710.959 464.732 710.732C465.754 710.675 472.674 710.209 468.688 710.708C467.736 710.827 468.461 711.587 469.128 711.587C470.121 711.587 471.114 711.587 472.107 711.587C473.998 711.587 475.664 711.431 477.479 711.172C478.535 711.021 479.096 710.362 480.165 710.244C481.38 710.109 484.774 710.32 483.778 709.609C482.331 708.575 477.68 709.345 475.818 709.389C474.815 709.413 472.839 709.829 472.839 709.829C472.839 709.829 475.346 709.852 476.6 709.829C479.586 709.772 483.115 708.666 485.927 707.729C487.894 707.073 494.056 706.312 491.983 706.312" stroke="white" stroke-width="3" stroke-linecap="round"/>
<path d="M489.346 707.191C491.955 707.254 494.154 707.935 496.378 709.047C497.035 709.376 492.577 704.596 494.425 706.972C495.52 708.38 497.966 710.251 499.65 710.732C501.246 711.188 503.561 710.97 505.169 711.684C508.386 713.114 512.503 714.185 516.132 714.639C518.716 714.962 521.457 715.103 524.068 715.103C525.58 715.103 527.645 714.712 529.099 715.127C532.287 716.039 522.55 716.422 519.234 716.422C516.965 716.422 515.918 714.736 514.301 713.443C512.794 712.237 510.127 712.573 508.441 711.807C506.011 710.702 503.271 710.397 500.749 709.609C499.782 709.307 498.874 709.138 497.917 708.925C496.816 708.681 500.89 708.92 501.457 708.95C504.595 709.115 508.464 710.739 511.517 711.611C512.683 711.944 518.395 712.466 514.838 712.466" stroke="white" stroke-width="3" stroke-linecap="round"/>
<path d="M454.184 682.578C451.918 688.042 452.426 694.218 452.426 700.159" stroke="white" stroke-width="3" stroke-linecap="round"/>
<path d="M452.865 700.159C453.34 699.014 454.623 697.3 454.623 695.984C454.623 695.292 455.046 694.079 455.502 693.566C456.321 692.645 457.191 689.542 457.26 688.292C457.313 687.352 458.29 684.94 458.921 684.238C459.3 683.817 459.897 682.28 459.897 682.847C459.897 683.621 459.673 684.511 459.36 685.215C458.02 688.232 458.396 692.477 458.579 695.764C458.617 696.445 459.06 697.244 459.458 697.742C460.021 698.445 459.897 696.026 459.897 695.764C459.897 693.627 461.448 691.914 461.656 690.05C461.858 688.227 463.662 686.94 463.853 685.215C463.991 683.979 465.079 682.33 465.709 681.259C465.867 680.992 467.193 679.654 467.345 680.185C467.507 680.752 466.647 682.446 466.393 683.018C465.621 684.754 465.611 686.403 465.611 688.292C465.611 689.892 465.178 692.45 466.393 693.664C467.995 695.267 467.086 691.395 467.467 690.489C468.865 687.168 468.958 683.673 470.666 680.6C471.301 679.457 471.726 677.792 473.303 677.792C473.807 677.792 472.644 681.5 472.644 681.919C472.644 683.937 472.681 685.714 473.108 687.633C473.191 688.006 474.178 690.016 474.744 689.513C475.238 689.073 474.011 688.125 474.011 687.633C474.011 685.926 476.161 684.662 476.575 683.213C477.06 681.515 477.46 679.677 477.942 677.987C478.323 676.656 478.797 673.909 478.797 677.059C478.797 678.98 478.797 680.901 478.797 682.822C478.797 684.217 478.92 687.416 480.775 687.828C481.77 688.049 481.874 688.505 481.874 687.071C481.874 686.013 481.874 684.955 481.874 683.897C481.874 681.772 481.874 679.648 481.874 677.523C481.874 674.974 482.66 675.239 483.168 677.523C483.838 680.539 484.487 683.213 486.245 685.85C488.489 689.216 482.753 678.272 482.753 674.227" stroke="white" stroke-width="3" stroke-linecap="round"/>
<path d="M506.927 699.28C510.895 701.603 516.149 701.917 520.772 701.917C525.695 701.917 531.822 702.266 536.131 699.524C537.571 698.608 539.199 697.817 540.77 696.985C542.406 696.119 543.43 694.446 544.97 693.566C546.379 692.761 548.051 691.316 549.219 690.148C550.347 689.02 551.608 687.094 552.857 686.094C553.635 685.472 554.97 681.699 552.857 681.699C551.344 681.699 546.827 681.259 548.34 681.259C549.831 681.259 553.352 681.905 554.396 680.6C554.917 679.948 554.859 682.598 554.835 683.018C554.797 683.699 553.83 685.54 553.419 685.997C551.92 687.662 550.624 689.345 548.902 690.685C547.077 692.104 545.402 694.249 543.408 695.422C541.454 696.571 540.936 697.96 538.377 698.425C536.467 698.773 534.855 700.159 532.859 700.159" stroke="white" stroke-width="3" stroke-linecap="round"/>
<path d="M520.552 713.784C518.384 712.515 516.626 712.329 514.399 711.587" stroke="white" stroke-width="3" stroke-linecap="round"/>
<path d="M511.322 713.784C510.511 713.17 509.564 712.026 508.465 712.026C508.015 712.026 507.237 712.194 506.927 711.807C506.345 711.08 503.212 711.587 504.143 711.587C505.33 711.587 505.649 712.754 506.683 713.345C507.094 713.58 505.965 712.74 505.608 712.026" stroke="white" stroke-width="3" stroke-linecap="round"/>
<path d="M481.874 706.752C480.738 706.752 479.738 706.565 478.797 707.191" stroke="white" stroke-width="3" stroke-linecap="round"/>
<path d="M541.649 736.2H543.847" stroke="white" stroke-width="3" stroke-linecap="round"/>
<path d="M542.089 737.519C544.248 736.417 545.959 735.1 547.803 733.563" stroke="white" stroke-width="3" stroke-linecap="round"/>
<path d="M559.67 722.575C558.229 723.454 557.011 723.983 556.593 725.652" stroke="white" stroke-width="3" stroke-linecap="round"/>
<path d="M524.508 700.599C527.743 700.599 529.728 700.724 532.419 699.378C534.247 698.464 536.238 698.128 538.133 697.18C541.468 695.513 544.343 694.341 547.266 691.71C549.799 689.43 551.411 687.316 552.735 684.336C553.487 682.644 554.485 679.941 551.759 679.941C549.785 679.941 546.924 679.129 546.924 681.699" stroke="white" stroke-width="3" stroke-linecap="round"/>
<path d="M524.508 700.599C521.518 701.182 518.534 701.038 515.498 701.038C513.191 701.038 510.318 701.152 508.245 700.061C506.558 699.173 504.58 698.013 502.776 697.497C500.913 696.965 499.981 694.269 498.576 693.566" stroke="white" stroke-width="3" stroke-linecap="round"/>
<path d="M402.789 717.97C403.43 718.817 403.883 719.55 404.789 720.067C405.962 720.738 406.751 722.467 407.604 723.475C409.027 725.156 411.021 726.299 412.575 727.854C413.169 728.447 418.118 732.922 418.517 732.125" stroke="white" stroke-width="4" stroke-linecap="round"/>
<path d="M405.235 719.543C404.517 718.595 404.009 717.58 403.449 716.572C403.393 716.471 402.904 715.601 402.827 715.601C402.752 715.601 402.789 717.003 402.789 717.184C402.789 717.986 402.897 717.433 402.779 717.019C402.703 716.752 402.389 716.415 402.264 716.135C402.025 715.597 401.565 715.058 401.565 714.475C401.565 714.087 401.414 713.783 401.391 713.427C401.36 712.974 401.339 714.342 401.429 714.786C401.564 715.442 401.888 715.86 401.915 716.533C401.923 716.727 402.073 717.346 402.177 717.533C402.396 717.927 402.789 719.187 402.789 718.737C402.789 718.136 402.838 717.538 402.653 716.96C402.381 716.114 401.939 715.239 401.75 714.388C401.061 711.289 400.691 708.235 400.691 704.951C400.691 703.351 400.743 702.217 401.429 700.844C402.033 699.636 402.22 698.158 403.488 697.524" stroke="white" stroke-width="4" stroke-linecap="round"/>
<path d="M547.502 639.21C545.492 640.024 543.367 641.137 541.24 641.137C539.715 641.137 537.179 642.408 536.182 640.415" stroke="white" stroke-width="4" stroke-linecap="round"/>
<path d="M533.922 639.308C536.178 639.677 538.52 639.522 540.804 639.522C542.999 639.522 544.749 638.475 546.736 637.813" stroke="white" stroke-width="4" stroke-linecap="round"/>
<path d="M517.692 611.332C518.276 612.707 519.388 613.296 520.682 613.943C520.905 614.054 521.932 614.862 521.963 614.322C521.989 613.884 521.709 612.213 521.916 612.187C523.11 612.037 524.489 612.267 525.641 611.926C526.474 611.679 527.358 611.913 528.156 611.594C528.855 611.314 529.863 611.222 530.612 611.107C532.456 610.823 534.363 610.677 536.165 610.277C537.284 610.028 538.972 609.558 539.688 608.663C539.986 608.291 540.853 607.842 541.302 607.714C541.601 607.629 542.605 607.275 541.776 607.275C540.313 607.275 538.355 607.737 537.126 608.556" stroke="white" stroke-width="4" stroke-linecap="round"/>
<path d="M519.614 611.76H521.109" stroke="white" stroke-width="4" stroke-linecap="round"/>
<path d="M521.963 614.749C522.995 614.749 523.944 614.963 524.953 614.963" stroke="white" stroke-width="4" stroke-linecap="round"/>
<path d="M533.282 610.478C533.978 610.182 535.637 609.615 536.058 608.983" stroke="white" stroke-width="4" stroke-linecap="round"/>
<path d="M558.932 428.178C559.981 429.911 561.299 431.35 562.469 432.988C563.88 434.963 566.217 436.464 568.139 437.93C574.377 442.688 582.547 444.003 590.22 444.003" stroke="#080808" stroke-width="4" stroke-linecap="round"/>
<path d="M556.567 425.267C557.318 426.219 558.09 427.005 558.75 427.996" stroke="#080808" stroke-width="4" stroke-linecap="round"/>
<path d="M556.204 424.903C556.013 424.641 555.191 423.198 554.829 423.094C554.499 423 554.38 422.528 554.021 422.316C553.552 422.04 553.296 421.398 552.838 421.093C552.403 420.803 551.718 420.318 551.393 419.901C550.347 418.555 548.771 417.165 547.391 416.172C545.106 414.526 543.357 412.174 540.924 410.715" stroke="#080808" stroke-width="4" stroke-linecap="round"/>
<path d="M623.873 361.782C625.101 361.782 626.267 361.922 627.44 362.226C628.479 362.496 629.642 362.459 630.512 363.136C631.517 363.918 632.833 364.14 634.019 364.551C635.118 364.931 636.483 365.204 637.617 365.42C639.356 365.751 641.053 366.259 642.791 366.693" stroke="#080808" stroke-width="4" stroke-linecap="round"/>
<path d="M621.884 361.573C623.132 362.481 624.979 362.199 626.36 362.869C627.19 363.273 628.14 363.437 629.012 363.68C630.033 363.963 631.057 364.266 632.09 364.496C632.764 364.645 633.575 364.836 634.196 365.138C635.062 365.558 636.167 365.633 636.981 366.11C637.702 366.533 638.598 366.673 639.387 366.92C640.605 367.301 641.822 367.706 643.047 368.102C644.985 368.729 646.807 369.538 648.831 369.89C650.116 370.113 651.348 370.644 652.641 370.838C653.204 370.922 653.729 371.233 654.28 371.288C654.777 371.338 655.166 371.699 655.642 371.726C656.496 371.775 657.328 372.384 658.126 372.65C659.363 373.063 660.578 373.666 661.858 373.946C663.151 374.229 664.64 374.754 665.842 375.338C666.795 375.801 667.829 375.865 668.812 376.214C669.519 376.465 670.261 376.802 671.026 376.802" stroke="#080808" stroke-width="4" stroke-linecap="round"/>
<path d="M670.054 377.342C669.247 377.323 668.584 376.985 667.81 376.826C667.405 376.743 667.005 376.712 666.598 376.61C665.428 376.318 664.356 375.706 663.202 375.398C662.172 375.124 661.245 374.587 660.172 374.372C659.103 374.158 658.106 373.836 657.088 373.454C655.004 372.673 652.885 371.943 650.721 371.402C648.462 370.837 646.205 370.237 643.965 369.59C642.376 369.131 640.918 368.505 639.381 367.946C638.055 367.464 636.783 366.865 635.486 366.32C633.464 365.468 631.303 365.111 629.252 364.382C626.215 363.302 623.078 362.375 619.892 361.795C618.976 361.629 618.161 361.023 617.299 360.709C616.801 360.528 616.235 360.221 615.733 360.001C615.078 359.715 614.41 359.427 613.735 359.173C612.206 358.597 610.806 357.905 609.331 357.253C607.676 356.522 606.189 355.345 604.489 354.721C603.676 354.423 602.902 353.991 602.113 353.629C601.32 353.266 600.476 353.034 599.688 352.657C598.385 352.034 596.687 350.989 595.206 350.989" stroke="#080808" stroke-width="4" stroke-linecap="round"/>
<path d="M595.507 351.343C592.257 350.075 588.439 349.068 585.92 346.55" stroke="#080808" stroke-width="4" stroke-linecap="round"/>
<path d="M255.732 556.562C254.576 559.243 252.96 561.72 252.047 564.459" stroke="#2042da" stroke-width="4" stroke-linecap="round"/>
<path d="M245.81 561.161C246.666 559.985 247.236 558.915 248.195 557.796C248.971 556.891 249.967 556.134 250.822 555.279C252.175 553.925 253.396 552.308 254.61 550.824C255.711 549.478 256.194 548.453 257.794 547.653" stroke="#2042da" stroke-width="4" stroke-linecap="round"/>
<path d="M249.732 555.932C250.097 554.269 251.71 552.644 252.952 551.526C253.752 550.806 254.347 549.31 255.397 548.96" stroke="#2042da" stroke-width="4" stroke-linecap="round"/>
<path d="M252.129 555.061C251.268 557.029 249.862 558.81 249.188 560.834C249.138 560.983 248.618 562.379 248.679 561.524C248.753 560.486 249.319 559.402 249.732 558.462C249.912 558.052 249.949 557.99 250.144 557.615C250.229 557.451 250.221 557.036 250.386 557.118C250.683 557.267 250.028 559.087 249.95 559.273C249.444 560.485 248.793 561.433 247.771 562.251" stroke="#2042da" stroke-width="4" stroke-linecap="round"/>
<path d="M244.939 562.686C246.16 559.558 248.677 556.988 251.04 554.625" stroke="#2042da" stroke-width="4" stroke-linecap="round"/>
<path d="M247.553 558.111C248.028 557.333 248.449 556.562 249.079 555.932" stroke="#2042da" stroke-width="4" stroke-linecap="round"/>
<path d="M247.989 557.022C248.325 556.491 248.743 556 249.079 555.496" stroke="#2042da" stroke-width="4" stroke-linecap="round"/>
<path d="M25 268L201.5 182L365.5 220.5L422.5 283L377.5 347L334.5 394L259.5 315L25 268Z" fill="#808080"/>
<path d="M25 268L263 310.5L337 388.5L423.5 281.5L389.5 372L302.5 520.5L35 468L25 268Z" fill="#A3A3A3"/>
<path d="M653.652 151.073C654.055 151.588 654.209 152.017 654.764 151.74" stroke="black" stroke-width="4" stroke-linecap="round"/>
<path d="M652.986 151.74C653.419 151.401 654.143 150.935 654.319 150.406" stroke="black" stroke-width="4" stroke-linecap="round"/>
<path d="M653.43 151.295C653.287 150.478 653.192 150.314 653.875 150.011C654.168 149.881 654.67 149.928 654.752 150.295C654.894 150.935 654.941 151.74 654.208 151.74C653.802 151.74 652.8 151.92 652.763 151.295C652.717 150.503 652.622 150.009 653.43 149.739" stroke="black" stroke-width="4" stroke-linecap="round"/>
<path d="M575.725 139.622C576.482 138.662 578.889 136.845 580.252 136.693C580.937 136.617 582.268 135.85 582.899 135.495C583.922 134.92 585.144 135.068 586.257 134.696C588.046 134.1 590.416 134.403 592.115 133.631C592.957 133.248 594.971 133.265 595.901 133.232C596.839 133.199 597.719 132.966 598.623 132.966" stroke="#170C03" stroke-width="4" stroke-linecap="round"/>
<path d="M599.422 133.232C600.675 133.25 601.908 133.343 603.149 133.498" stroke="#170C03" stroke-width="4" stroke-linecap="round"/>
<path d="M560.016 147.61C557.78 147.61 555.199 147.524 553.094 148.275C552.408 148.52 551.674 148.588 550.964 148.689C550.288 148.786 549.72 149.405 549.1 149.681C547.393 150.439 546.237 152.37 544.574 153.201" stroke="#170C03" stroke-width="4" stroke-linecap="round"/>
<path d="M544.307 155.331C545.067 154.286 546.069 152.695 547.236 152.077C547.775 151.792 548.191 151.355 548.775 151.13C549.551 150.831 550.374 150.871 551.082 150.42C552.167 149.73 553.435 149.528 554.543 148.823C555.279 148.354 557.309 147.876 558.153 147.876" stroke="#170C03" stroke-width="4" stroke-linecap="round"/>
<path d="M577.589 140.421C578.142 140.186 578.493 139.964 578.92 139.622" stroke="#170C03" stroke-width="4" stroke-linecap="round"/>
<path d="M577.056 140.155C578.277 139.731 579.766 139.339 580.666 138.439C580.955 138.149 581.493 138.235 581.79 137.965C582.116 137.669 582.215 137.383 582.648 137.167C583.891 136.545 585.281 136.326 586.523 135.761C587.997 135.091 590.741 134.563 592.366 134.563C593.925 134.563 595.51 133.765 597.025 133.765" stroke="#170C03" stroke-width="4" stroke-linecap="round"/>
</svg>
