<svg width="250" height="200" viewBox="0 0 207 185" fill="none" xmlns="http://www.w3.org/2000/svg">
<path d="M186 98C174 126.5 160.5 160.189 92.9999 163.189C74.4999 163.189 57.5 154.356 45 145.69C9.50006 121.076 35.139 148.005 74.5 131.69C122 112 83 131.19 61.0001 120.19C39.0001 109.19 29.1604 107 52.5001 107C130 98 74.5 128.19 20 87.5C61.0001 83.6895 66.5 103.483 3 50.5C49.5 71.6895 84 93 118 67.5C125 44.2671 124.5 50.7671 127 36.2671C147 23 147 23 166.5 23C186 23 189.5 34 204.5 23C177.5 42.8 181.5 40.7671 204.5 30.7671C189.352 40.5343 192.5 59.1687 192.5 67.5C192.5 80.5 194.053 78.8736 186 98Z" fill="#2042DA"/>
</svg>
